<svg width="66" height="47" viewBox="0 0 66 47" fill="none" xmlns="http://www.w3.org/2000/svg">
<rect x="1.01953" y="0.5" width="63.5" height="45.4714" rx="3.5" fill="#FCFCFD" stroke="#CDD5DF"/>
<path d="M12.6647 17.5207L7.60352 28.3968L11.8032 29.0429L13.7416 26.3508H16.0029L17.5105 29.0429H23.7563L24.51 25.3816L26.3407 29.0429L29.3559 28.3968L31.8326 25.8124V28.3968H47.5546L50.2467 26.3508L52.4004 29.0429L56.7078 28.3968L53.2619 23.228L57.4616 16.7669C56.0258 16.9104 53.0681 17.1114 52.7235 16.7669C52.3789 16.4223 50.5698 18.5616 49.7083 19.6743L46.6931 16.7669H31.4019L27.8483 21.3973L24.9408 16.7669H20.5257L19.1258 19.6743L17.8336 17.5207H12.6647Z" fill="#26A6D1"/>
<path d="M11.7052 16.0001L5.5 29.7321H12.9285L13.8495 27.5426H15.9545L16.8754 29.7321H25.0521V28.061L25.7807 29.7321H30.0104L30.739 28.0257V29.7321H47.7444L49.8121 27.5995L51.7483 29.7321L60.4826 29.7498L54.2578 22.9044L60.4826 16.0001H51.8838L49.8709 18.0933L47.9957 16.0001H29.4961L27.9075 19.5445L26.2817 16.0001H18.8686V17.6143L18.044 16.0001C18.044 16.0001 11.7052 16.0001 11.7052 16.0001ZM13.1426 17.9501H16.7636L20.8796 27.2618V17.9501H24.8462L28.0253 24.6265L30.9552 17.9501H34.9021V27.8037H32.5005L32.4809 20.0825L28.9796 27.8037H26.8313L23.3104 20.0825V27.8037H18.3699L17.4332 25.5946H12.3729L11.4382 27.8017H8.79107L13.1426 17.9501ZM37.0993 17.9501H46.8646L49.8513 21.1763L52.9343 17.9501H55.9211L51.383 22.9025L55.9211 27.7979H52.7989L49.8121 24.5342L46.7134 27.7979H37.0993V17.9501ZM14.9041 19.6173L13.2369 23.5525H16.5694L14.9041 19.6173ZM39.5108 19.9903V21.789H44.8382V23.7939H39.5108V25.7577H45.4862L48.2627 22.8652L45.604 19.9886H39.5108V19.9903Z" fill="white"/>
</svg>
