<svg
        width="53"
        height="60"
        viewBox="0 0 53 60"
        fill="none"
        xmlns="http://www.w3.org/2000/svg"
      >
        <path
          d="M38.575 1.01295C39.8315 1.37194 40.9084 1.73097 41.8059 2.62845C43.0624 3.88492 43.4214 5.32082 43.4214 6.93628C43.4214 12.6801 43.4214 18.6035 43.4214 24.3474C43.4214 24.8859 43.4214 25.0654 44.1394 25.2449C46.2933 25.7834 47.9088 27.7579 48.0883 29.9118C48.0883 30.0913 48.0883 30.2708 48.0883 30.4503C48.6268 30.4503 48.9858 30.4503 49.5242 30.4503C50.9602 30.4503 52.2167 31.5272 52.5757 32.7837C52.9347 34.2197 52.2167 35.6557 50.7807 36.1942C50.6012 36.1942 50.4217 36.5531 50.4217 36.7326C50.0627 39.6046 49.8832 42.4764 49.5242 45.5279C49.3447 47.3228 49.3447 48.9384 48.6268 50.5538C48.2678 51.6308 47.5498 52.5283 46.6523 53.2463C46.2933 53.4258 46.2933 53.6052 46.4728 53.9642C46.8318 55.0412 47.0113 56.1181 46.8318 57.1951C46.4728 58.8105 45.2163 59.5285 43.7804 58.99C42.5239 58.631 41.6264 57.7336 40.9084 56.6566C40.5494 56.1181 40.1905 55.5797 39.8315 55.0412C39.652 54.6822 39.4725 54.6822 39.1135 54.6822C37.857 54.6822 36.6005 54.6822 35.5236 54.6822C28.1642 54.6822 20.9844 54.6822 13.6251 54.6822C13.2661 54.6822 12.9071 54.8617 12.7276 55.2207C12.0096 56.4771 11.2917 57.5541 10.0352 58.2721C9.67619 58.6311 9.1377 58.8105 8.59921 58.99C6.98375 59.5285 5.54779 58.4516 5.54779 56.6566C5.54779 55.7591 5.90678 54.8617 5.90678 53.7847C5.90678 53.6052 5.90678 53.4258 5.90678 53.2463C4.11182 51.8103 3.39384 49.8358 3.21434 47.6818C3.21434 47.1433 3.03485 46.4254 3.03485 45.8869C3.03485 45.3484 3.21434 44.8099 3.75283 44.8099C4.29132 44.8099 4.65031 44.9894 4.8298 45.7074C5.0093 46.7844 5.00929 47.8613 5.36828 48.9383C5.90677 50.9128 6.98374 52.3487 8.9582 52.7077C9.49668 52.8872 9.85568 52.8872 10.3942 52.8872C21.1639 52.8872 31.9337 52.8872 42.5239 52.8872C45.3958 52.8872 47.3703 51.0923 47.7293 48.3999C48.0883 44.9894 48.4473 41.3995 48.8063 37.9891C48.8063 37.4506 48.9857 36.9121 48.9857 36.3736C46.1138 36.3736 43.2419 36.3736 40.3699 36.3736C40.3699 36.5531 40.3699 36.7327 40.3699 37.0916C40.3699 39.7841 40.3699 42.4765 40.3699 45.169C40.3699 47.3229 39.1135 48.5794 36.9595 48.7589C34.2671 48.7589 31.7542 48.7589 29.0617 48.7589C26.9078 48.7589 25.6513 47.5024 25.6513 45.3484C25.6513 44.6304 25.6513 43.9124 25.6513 43.1944C25.6513 42.4765 26.0103 42.1175 26.5488 42.1175C27.0873 42.1175 27.4463 42.4765 27.4463 43.1944C27.4463 43.9124 27.4463 44.6304 27.4463 45.3484C27.4463 46.4254 27.9847 47.1434 29.2412 47.1434C31.9337 47.1434 34.4466 47.1434 37.139 47.1434C38.216 47.1434 38.934 46.6048 38.934 45.5279C38.934 41.22 38.934 36.9122 38.934 32.6043C38.934 32.4248 38.934 32.4247 38.934 32.2452C35.1646 32.2452 31.3952 32.2452 27.6258 32.2452C27.6258 32.4247 27.6258 32.7837 27.6258 32.9632C27.6258 34.7581 27.6258 36.7326 27.6258 38.5276C27.6258 38.7071 27.6258 38.8866 27.6258 39.0661C27.6258 39.6045 27.2668 39.7841 26.7283 39.7841C26.3693 39.7841 26.0103 39.6045 26.0103 39.0661C26.0103 38.5276 26.0103 37.8096 26.0103 37.2711C26.0103 37.0916 26.0103 36.9121 26.0103 36.5531C18.8305 36.5531 11.6506 36.5531 4.29131 36.5531C4.47081 37.63 4.47082 38.7071 4.65031 39.7841C4.65031 40.5021 4.8298 41.22 4.8298 41.7585C4.8298 42.297 4.65031 42.6559 4.11182 42.8354C3.57333 42.8354 3.21434 42.6559 3.21434 41.9379C3.03484 40.3225 2.85534 38.7071 2.67585 37.0916C2.67585 36.5532 2.49636 36.3737 1.95787 36.1942C0.701405 35.6557 -0.0165806 34.2197 0.342411 32.7837C0.701402 31.5272 1.77837 30.4503 3.21434 30.4503C4.11182 30.4503 5.0093 30.4503 5.90678 30.4503C6.26577 28.8348 6.98375 27.5783 8.24022 26.6808C9.49669 25.7833 11.1121 25.6039 12.5481 25.9629C13.6251 23.45 15.5995 22.0139 18.4715 22.1934C20.9844 22.3729 22.7794 23.8089 23.6769 26.1423C25.6513 25.4244 27.4463 25.4244 29.2412 26.3219C29.6002 25.6039 29.9592 24.7064 30.4977 23.9884C30.6772 23.6294 31.0362 23.2704 31.3952 23.0909C31.7542 22.7319 32.2926 22.7319 32.6516 23.0909C33.0106 23.4499 33.0106 23.9884 32.6516 24.3474C31.9337 25.0654 31.3952 25.9629 31.2157 26.8604C31.2157 27.0399 31.2157 27.3988 31.2157 27.5783C31.2157 28.6553 30.4977 28.8348 29.6002 28.2963C27.8052 27.0398 25.8308 27.0399 23.8563 28.1169C22.9589 28.6554 22.4204 28.2963 22.2409 27.3988C21.8819 25.6039 20.8049 24.3474 19.01 23.9884C16.856 23.4499 14.7021 24.8859 14.1636 27.0398C13.9841 28.1168 13.6251 28.2963 12.5481 27.7579C10.3942 26.8604 8.06072 28.1168 7.70173 30.2707C20.8049 30.2707 33.9081 30.2707 47.0113 30.2707C47.0113 27.5783 44.1394 25.7834 41.6264 26.8604C40.5494 27.3989 40.37 27.2193 39.8315 26.1423C39.1135 24.3474 37.857 23.45 35.8826 23.2705C35.7031 23.2705 35.7031 23.2705 35.5236 23.2705C34.9851 23.2705 34.6261 22.732 34.8056 22.373C34.8056 21.8345 35.1646 21.655 35.7031 21.655C38.0365 21.655 39.652 22.7319 40.9084 24.7064C41.0879 24.8859 41.0879 25.0654 41.2674 25.2449C41.4469 25.2449 41.8059 25.2449 41.9854 25.0654C42.1649 25.0654 42.1649 24.8859 42.3444 24.7064C42.3444 24.5269 42.3444 24.5269 42.3444 24.3474C42.3444 18.6035 42.3444 12.6801 42.3444 6.93628C42.3444 4.24385 40.7289 2.62845 38.0365 2.62845C35.8826 2.62845 33.7286 2.62845 31.3952 2.62845C29.7797 2.62845 28.3437 3.70536 27.8052 5.14133C27.8052 5.32082 27.6258 5.50041 27.6258 5.6799C27.8052 5.6799 27.9848 5.85935 28.1642 5.85935C31.2157 6.57734 33.3696 9.09028 33.3696 12.1417C33.3696 13.0392 33.1901 13.2186 32.2926 13.2186C28.5232 13.2186 24.9333 13.2186 21.1639 13.2186C20.2664 13.2186 20.0869 12.8597 20.0869 12.1417C20.2664 9.09028 22.4204 6.39784 25.4718 5.85935C25.8308 5.85935 26.0103 5.67988 26.1898 5.32089C26.7283 2.98744 28.3437 1.55144 30.6772 1.01295C30.6772 1.01295 30.8567 1.01299 30.8567 0.833496C32.8311 1.01299 35.7031 1.01295 38.575 1.01295ZM25.1128 32.4247C24.9333 32.4247 24.7538 32.4247 24.7538 32.4247C17.3945 32.4247 10.0352 32.4247 2.85535 32.4247C2.67586 32.4247 2.49636 32.4247 2.31686 32.4247C1.77837 32.6042 1.41938 33.1427 1.41938 33.6812C1.41938 34.3992 1.95786 34.7582 2.67585 34.9377C2.85534 34.9377 3.03484 34.9377 3.21434 34.9377C10.3942 34.9377 17.574 34.9377 24.7538 34.9377C24.9333 34.9377 25.1128 34.9377 25.4718 34.9377C25.1128 34.0402 25.1128 33.3222 25.1128 32.4247ZM30.8567 11.6032C30.6772 9.44929 28.5232 7.47486 26.0103 7.47486C23.6768 7.47486 21.3434 9.44929 21.1639 11.6032C24.3948 11.6032 27.6258 11.6032 30.8567 11.6032ZM40.011 34.9377C40.1905 34.9377 40.5494 34.9377 40.7289 34.9377C43.6009 34.9377 46.2933 34.9377 49.1652 34.9377C49.3447 34.9377 49.5242 34.9377 49.7037 34.9377C50.2422 34.9377 50.7807 34.3991 50.7807 33.8606C50.7807 33.3222 50.4217 32.7838 49.8832 32.6043C49.7037 32.6043 49.3447 32.4247 49.1652 32.4247C46.2933 32.4247 43.4214 32.4247 40.3699 32.4247C40.1904 32.4247 40.011 32.4247 39.8315 32.4247C40.011 33.3222 40.011 34.0402 40.011 34.9377ZM7.34275 54.8617C7.34275 55.5796 7.16324 56.4771 7.16324 57.1951C7.16324 57.7336 7.52223 58.0926 8.06072 57.9131C9.31719 57.3746 10.2147 56.4771 10.9327 55.2207C9.67619 55.0412 8.59922 54.8617 7.34275 54.8617ZM41.2674 55.0412C41.9854 56.1182 42.7034 57.1952 43.9599 57.7337C44.4983 57.9131 44.8573 57.9131 45.0368 57.3746C45.2163 56.4772 45.0368 55.5796 44.6778 54.8617C43.4214 54.8617 42.5239 55.0412 41.2674 55.0412Z"
          fill="currentColor"
        />
        <path
          d="M26.9079 18.9625C26.9079 19.86 26.9079 20.7575 26.9079 21.655C26.9079 22.3729 26.5489 22.732 26.0104 22.732C25.472 22.732 25.113 22.3729 25.113 21.655C25.113 19.86 25.113 18.065 25.113 16.2701C25.113 15.5521 25.472 15.1932 26.0104 15.1932C26.5489 15.1932 26.9079 15.5521 26.9079 16.2701C26.9079 17.1676 26.9079 18.065 26.9079 18.9625Z"
          fill="currentColor"
        />
        <path
          d="M23.318 18.2446C23.318 18.9626 23.318 19.501 23.318 20.219C23.318 20.7575 22.959 21.1165 22.4205 21.1165C21.882 21.1165 21.523 20.7575 21.523 20.219C21.523 18.783 21.523 17.5266 21.523 16.0906C21.523 15.5521 21.882 15.1932 22.4205 15.1932C22.959 15.1932 23.318 15.5521 23.318 16.0906C23.318 16.8086 23.318 17.5266 23.318 18.2446Z"
          fill="currentColor"
        />
        <path
          d="M30.4978 18.2446C30.4978 18.9626 30.4978 19.501 30.4978 20.219C30.4978 20.7575 30.1388 21.1165 29.6004 21.1165C29.0619 21.1165 28.7029 20.7575 28.7029 20.219C28.7029 18.783 28.7029 17.5266 28.7029 16.0906C28.7029 15.5521 29.0619 15.1932 29.6004 15.1932C30.1388 15.1932 30.4978 15.5521 30.4978 16.0906C30.4978 16.8086 30.4978 17.5266 30.4978 18.2446Z"
          fill="currentColor"
        />
      </svg>