<svg width="20" height="20" viewBox="0 0 20 20" fill="none" xmlns="http://www.w3.org/2000/svg">
<path d="M10.0215 0.271484C4.63563 0.271484 0.271484 4.63563 0.271484 10.0215C0.271484 15.4073 4.63563 19.7715 10.0215 19.7715C15.4073 19.7715 19.7715 15.4073 19.7715 10.0215C19.7715 4.63563 15.4073 0.271484 10.0215 0.271484ZM15.0135 7.3262L8.74649 13.6215H8.7418C8.66211 13.7012 8.44649 13.8793 8.19803 13.8793C8.0199 13.8793 7.81834 13.7809 7.64958 13.6121L5.02458 10.9871C4.94958 10.9121 4.94958 10.7949 5.02458 10.7199L5.85897 9.88553C5.89647 9.84803 5.94335 9.82928 5.99022 9.82928C6.03709 9.82928 6.08397 9.84803 6.12147 9.88553L8.2027 11.9668L13.9216 6.2059C13.9591 6.16841 14.0059 6.14966 14.0528 6.14966C14.1044 6.14966 14.1512 6.16841 14.1841 6.2059L15.0044 7.05435C15.0888 7.13404 15.0888 7.25122 15.0138 7.32622L15.0135 7.3262Z" fill="#12B76A"/>
</svg>
