<svg width="20" height="20" viewBox="0 0 20 20" fill="none" xmlns="http://www.w3.org/2000/svg">
<path d="M1 1.00049H3L3.4 3.00049M3.4 3.00049H19L15 11.0005H5M3.4 3.00049L5 11.0005M5 11.0005L2.707 13.2935C2.077 13.9235 2.523 15.0005 3.414 15.0005H15M15 15.0005C14.4696 15.0005 13.9609 15.2112 13.5858 15.5863C13.2107 15.9613 13 16.4701 13 17.0005C13 17.5309 13.2107 18.0396 13.5858 18.4147C13.9609 18.7898 14.4696 19.0005 15 19.0005C15.5304 19.0005 16.0391 18.7898 16.4142 18.4147C16.7893 18.0396 17 17.5309 17 17.0005C17 16.4701 16.7893 15.9613 16.4142 15.5863C16.0391 15.2112 15.5304 15.0005 15 15.0005ZM7 17.0005C7 17.5309 6.78929 18.0396 6.41421 18.4147C6.03914 18.7898 5.53043 19.0005 5 19.0005C4.46957 19.0005 3.96086 18.7898 3.58579 18.4147C3.21071 18.0396 3 17.5309 3 17.0005C3 16.4701 3.21071 15.9613 3.58579 15.5863C3.96086 15.2112 4.46957 15.0005 5 15.0005C5.53043 15.0005 6.03914 15.2112 6.41421 15.5863C6.78929 15.9613 7 16.4701 7 17.0005Z" stroke="#121926" stroke-width="1.5" stroke-linecap="round" stroke-linejoin="round"/>
</svg>
