<svg width="44" height="44" viewBox="0 0 44 44" fill="none" xmlns="http://www.w3.org/2000/svg">
<rect width="44" height="44" rx="22" fill="#FCFCFD"/>
<path d="M13.3425 17.778C13.5687 17.232 13.9002 16.7359 14.318 16.318C14.7359 15.9002 15.232 15.5687 15.778 15.3425C16.3239 15.1164 16.9091 15 17.5 15C18.091 15 18.6762 15.1164 19.2221 15.3425C19.7681 15.5687 20.2642 15.9002 20.682 16.318L22 17.636L23.318 16.318C24.162 15.4741 25.3066 15 26.5 15C27.6935 15 28.8381 15.4741 29.682 16.318C30.526 17.162 31.0001 18.3066 31.0001 19.5C31.0001 20.6935 30.526 21.8381 29.682 22.682L22 30.364L14.318 22.682C13.9002 22.2642 13.5687 21.7681 13.3425 21.2221C13.1164 20.6762 13 20.091 13 19.5C13 18.9091 13.1164 18.3239 13.3425 17.778Z" stroke="#121926" stroke-width="2" stroke-linecap="round" stroke-linejoin="round"/>
</svg>
