<svg width="64" height="64" viewBox="0 0 64 64" fill="none" xmlns="http://www.w3.org/2000/svg">
<g filter="url(#filter0_d_5293_16970)">
<rect x="8" y="7" width="48" height="48" rx="24" fill="white"/>
<path d="M22.4466 38.5125H25.6855C26.0699 38.5125 26.4078 38.2032 26.4078 37.8181V28.7451C26.4078 28.36 26.0757 28.0682 25.6855 28.0682H23.0874V27.5606C23.0874 22.5077 27.0952 18.4001 31.9999 18.4001C36.9047 18.4001 40.9125 22.5077 40.9125 27.5606V28.0682H38.3144C37.9299 28.0682 37.5921 28.36 37.5921 28.7451V37.8181C37.5921 38.2032 37.9242 38.5125 38.3144 38.5125H38.9902V40.8289C38.9902 41.9199 38.0989 42.8302 37.0095 42.8302H32.5706C32.291 41.8966 31.4464 41.2431 30.4386 41.2431C29.2094 41.2431 28.2074 42.235 28.2074 43.472V43.5537C28.2074 44.7848 29.2036 45.8 30.4386 45.8C31.4405 45.8 32.2852 45.1056 32.5706 44.2305H37.0095C38.8737 44.2305 40.3883 42.6901 40.3883 40.8288V38.5124H41.5533C42.9048 38.5124 44 37.4155 44 36.0677V30.4957C44 29.4047 43.301 28.4769 42.3106 28.1619V27.5609C42.3106 21.7376 37.6737 17 32 17C26.3263 17 21.6894 21.7377 21.6894 27.5609V28.1619C20.699 28.4769 20 29.4047 20 30.4957V36.0677C20 37.4155 21.0951 38.5124 22.4467 38.5124L22.4466 38.5125ZM31.3011 43.5536C31.3011 44.0146 30.9166 44.3938 30.4565 44.3938C29.9963 44.3938 29.6118 44.0204 29.6118 43.5536V43.472C29.6118 43.011 29.9963 42.6318 30.4565 42.6318C30.9166 42.6318 31.3011 43.011 31.3011 43.472V43.5536ZM42.6024 30.4957V36.0676C42.6024 36.6453 42.1305 37.112 41.5538 37.112H38.9907V29.4687H41.5538C42.1305 29.4687 42.6024 29.9179 42.6024 30.4956V30.4957ZM21.3985 30.4957C21.3985 29.918 21.8703 29.4688 22.447 29.4688H25.0102V37.1121H22.447C21.8703 37.1121 21.3985 36.6454 21.3985 36.0677V30.4957Z" fill="#121926"/>
</g>
<defs>
<filter id="filter0_d_5293_16970" x="0" y="0" width="64" height="64" filterUnits="userSpaceOnUse" color-interpolation-filters="sRGB">
<feFlood flood-opacity="0" result="BackgroundImageFix"/>
<feColorMatrix in="SourceAlpha" type="matrix" values="0 0 0 0 0 0 0 0 0 0 0 0 0 0 0 0 0 0 127 0" result="hardAlpha"/>
<feOffset dy="1"/>
<feGaussianBlur stdDeviation="4"/>
<feComposite in2="hardAlpha" operator="out"/>
<feColorMatrix type="matrix" values="0 0 0 0 0 0 0 0 0 0 0 0 0 0 0 0 0 0 0.16 0"/>
<feBlend mode="normal" in2="BackgroundImageFix" result="effect1_dropShadow_5293_16970"/>
<feBlend mode="normal" in="SourceGraphic" in2="effect1_dropShadow_5293_16970" result="shape"/>
</filter>
</defs>
</svg>
