<svg width="30" height="24" viewBox="0 0 30 24" fill="none" xmlns="http://www.w3.org/2000/svg">
<path d="M28.5 0.5H1.5C1.10232 0.500463 0.721056 0.658647 0.439851 0.939851C0.158647 1.22106 0.000463153 1.60232 0 2V22C0.000463153 22.3977 0.158647 22.7789 0.439851 23.0601C0.721056 23.3414 1.10232 23.4995 1.5 23.5H28.5C28.8977 23.4995 29.2789 23.3414 29.5601 23.0601C29.8414 22.7789 29.9995 22.3977 30 22V2C29.9995 1.60232 29.8414 1.22106 29.5601 0.939851C29.2789 0.658647 28.8977 0.500463 28.5 0.5ZM28 2.5V6.5H2V2.5H28ZM2 21.5V10.5H28V21.5H2Z" fill="#06AED4"/>
</svg>
