<svg width="66" height="47" viewBox="0 0 66 47" fill="none" xmlns="http://www.w3.org/2000/svg">
<rect x="1.01953" y="0.5" width="63.5" height="45.4714" rx="3.5" fill="#FCFCFD" stroke="#CDD5DF"/>
<path d="M45.5195 44.998L64.5195 39.248V41.998C64.5195 43.6549 63.1764 44.998 61.5195 44.998H45.5195Z" fill="#FD6020"/>
<path fill-rule="evenodd" clip-rule="evenodd" d="M56.2795 17.6406C58.2625 17.6406 59.3531 18.5769 59.3531 20.3455C59.4523 21.6979 58.56 22.8422 57.3702 23.0503L60.0472 26.8995H57.9651L55.6846 23.1543H55.4863V26.8995H53.8008V17.6406H56.2795ZM55.4844 21.9065H55.9801C57.0708 21.9065 57.5665 21.3864 57.5665 20.4501C57.5665 19.6178 57.0708 19.0977 55.9801 19.0977H55.4844V21.9065ZM47.9531 26.8995H52.7123V25.339H49.6387V22.8422H52.6131V21.2817H49.6387V19.2011H52.7123V17.6406H47.9531V26.8995ZM42.9948 23.8825L40.7144 17.6406H38.9297L42.5982 27.1075H43.4906L47.1591 17.6406H45.3744L42.9948 23.8825ZM22.8672 22.3221C22.8672 24.9229 24.8502 27.1076 27.3289 27.1076C28.1221 27.1076 28.8161 26.8995 29.5102 26.5874V24.5068C29.0144 25.131 28.3204 25.5471 27.5272 25.5471C25.9408 25.5471 24.6519 24.2987 24.6519 22.6342V22.4262C24.5527 20.7616 25.8417 19.3052 27.4281 19.2012C28.2212 19.2012 29.0144 19.6173 29.5102 20.2415V18.1608C28.9153 17.7447 28.1221 17.6407 27.4281 17.6407C24.8502 17.4326 22.8672 19.6173 22.8672 22.3221ZM19.7929 21.1775C18.8015 20.7614 18.504 20.5533 18.504 20.0332C18.6032 19.409 19.0989 18.8888 19.6938 18.9928C20.1895 18.9928 20.6853 19.3049 21.0819 19.7211L21.9742 18.4727C21.2802 17.8485 20.3878 17.4324 19.4955 17.4324C18.1074 17.3283 16.9176 18.4727 16.8185 19.9291V20.0332C16.8185 21.2815 17.3142 22.0098 18.9006 22.5299C19.2972 22.634 19.6938 22.842 20.0904 23.0501C20.3878 23.2581 20.5861 23.5702 20.5861 23.9864C20.5861 24.7146 19.9912 25.3388 19.3964 25.3388H19.2972C18.504 25.3388 17.81 24.8186 17.5125 24.0904L16.4219 25.2348C17.0168 26.3791 18.2066 27.0033 19.3964 27.0033C20.9827 27.1073 22.2717 25.8589 22.3708 24.1944V23.8823C22.2717 22.634 21.7759 22.0098 19.7929 21.1775ZM14.043 26.8995H15.7285V17.6406H14.043V26.8995ZM6.21094 17.6405H8.68967H9.18542C11.565 17.7446 13.4488 19.8252 13.3497 22.322C13.3497 23.6744 12.7548 24.9228 11.7633 25.8591C10.871 26.5873 9.78031 27.0034 8.68967 26.8994H6.21094V17.6405ZM8.39418 25.3394C9.18738 25.4434 10.0797 25.1313 10.6746 24.6111C11.2695 23.987 11.567 23.1547 11.567 22.2184C11.567 21.3862 11.2695 20.5539 10.6746 19.9297C10.0797 19.4095 9.18738 19.0975 8.39418 19.2015H7.89844V25.3394H8.39418Z" fill="#121926"/>
<path fill-rule="evenodd" clip-rule="evenodd" d="M34.5687 17.4258C32.0899 17.4258 30.0078 19.5064 30.0078 22.2113C30.0078 24.812 31.9908 26.9967 34.5687 27.1008C37.1466 27.2048 39.1295 25.0201 39.2287 22.3153C39.1295 19.6105 37.1466 17.4258 34.5687 17.4258V17.4258Z" fill="#FD6020"/>
</svg>
