<svg width="28" height="28" viewBox="0 0 28 28" fill="none" xmlns="http://www.w3.org/2000/svg">
<path d="M15.05 12.25C14.35 12.075 13.65 11.725 13.125 11.2C12.6 11.025 12.425 10.5 12.425 10.15C12.425 9.8 12.6 9.275 12.95 9.1C13.475 8.75 14 8.4 14.525 8.575C15.575 8.575 16.45 9.1 16.975 9.8L18.55 7.7C18.025 7.175 17.5 6.825 16.975 6.475C16.45 6.125 15.75 5.95 15.05 5.95V3.5H12.95V5.95C12.075 6.125 11.2 6.65 10.5 7.35C9.8 8.225 9.275 9.275 9.45 10.325C9.45 11.375 9.8 12.425 10.5 13.125C11.375 14 12.6 14.525 13.65 15.05C14.175 15.225 14.875 15.575 15.4 15.925C15.75 16.275 15.925 16.8 15.925 17.325C15.925 17.85 15.75 18.375 15.4 18.9C14.875 19.425 14.175 19.6 13.65 19.6C12.95 19.6 12.075 19.425 11.55 18.9C11.025 18.55 10.5 18.025 10.15 17.5L8.4 19.425C8.925 20.125 9.45 20.65 10.15 21.175C11.025 21.7 12.075 22.225 13.125 22.225V24.5H15.05V21.875C16.1 21.7 16.975 21.175 17.675 20.475C18.55 19.6 19.075 18.2 19.075 16.975C19.075 15.925 18.725 14.7 17.85 14C16.975 13.125 16.1 12.6 15.05 12.25ZM14 0C6.3 0 0 6.3 0 14C0 21.7 6.3 28 14 28C21.7 28 28 21.7 28 14C28 6.3 21.7 0 14 0ZM14 26.075C7.35 26.075 1.925 20.65 1.925 14C1.925 7.35 7.35 1.925 14 1.925C20.65 1.925 26.075 7.35 26.075 14C26.075 20.65 20.65 26.075 14 26.075Z" fill="#06AED4"/>
</svg>
