<svg width="24" height="24" viewBox="0 0 24 24" fill="none" xmlns="http://www.w3.org/2000/svg">
<path opacity="0.9" d="M16.1975 11.167L22.3554 17.2065L21.4814 18.0631L15.3235 12.0236L16.1975 11.167ZM7.8481 11.193L8.72146 12.0496L2.60675 18.0467L1.7334 17.1926L7.8481 11.193Z" fill="#F8FAFC"/>
<path d="M12.0003 14.5931C11.0738 14.5931 10.0855 14.2296 9.40614 13.5027L1.68555 5.99114L2.55025 5.14307L10.2708 12.7152C11.2591 13.6844 12.8032 13.6844 13.7914 12.7152L21.512 5.14307L22.3767 5.99114L14.5944 13.5633C13.915 14.2296 12.9267 14.5931 12.0003 14.5931Z" fill="#F8FAFC"/>
<path d="M20.6471 19.5H3.35294C2.30294 19.5 1.5 18.7125 1.5 17.6827V5.56731C1.5 4.5375 2.30294 3.75 3.35294 3.75H20.6471C21.6971 3.75 22.5 4.5375 22.5 5.56731V17.6827C22.5 18.7125 21.6971 19.5 20.6471 19.5ZM3.35294 4.96154C2.98235 4.96154 2.73529 5.20385 2.73529 5.56731V17.6827C2.73529 18.0462 2.98235 18.2885 3.35294 18.2885H20.6471C21.0176 18.2885 21.2647 18.0462 21.2647 17.6827V5.56731C21.2647 5.20385 21.0176 4.96154 20.6471 4.96154H3.35294Z" fill="#F8FAFC"/>
</svg>
