<svg width="30" height="30" viewBox="0 0 30 30" fill="none" xmlns="http://www.w3.org/2000/svg">
<path d="M15 0.999878C7.2804 0.999878 1 7.28028 1 14.9999V20.8001C1 22.2337 2.2558 23.3999 3.8 23.3999H5.2C5.5713 23.3999 5.9274 23.2524 6.18995 22.9898C6.4525 22.7273 6.6 22.3712 6.6 21.9999V14.7997C6.6 14.4284 6.4525 14.0723 6.18995 13.8097C5.9274 13.5472 5.5713 13.3997 5.2 13.3997H3.9288C4.7072 7.98168 9.3692 3.79988 15 3.79988C20.6308 3.79988 25.2928 7.98168 26.0712 13.3997H24.8C24.4287 13.3997 24.0726 13.5472 23.81 13.8097C23.5475 14.0723 23.4 14.4284 23.4 14.7997V23.3999C23.4 24.9441 22.1442 26.1999 20.6 26.1999H17.8V24.7999H12.2V28.9999H20.6C23.6884 28.9999 26.2 26.4883 26.2 23.3999C27.7442 23.3999 29 22.2337 29 20.8001V14.9999C29 7.28028 22.7196 0.999878 15 0.999878Z" fill="#06AED4" stroke="white" stroke-width="0.5"/>
</svg>
