<svg width="65" height="47" viewBox="0 0 65 47" fill="none" xmlns="http://www.w3.org/2000/svg">
<rect x="0.519531" y="0.5" width="63.5" height="45.4714" rx="3.5" fill="#FCFCFD" stroke="#CDD5DF"/>
<path fill-rule="evenodd" clip-rule="evenodd" d="M32.6095 32.5857C30.3633 34.5182 27.4496 35.6848 24.2657 35.6848C17.1615 35.6848 11.4023 29.8765 11.4023 22.7115C11.4023 15.5466 17.1615 9.73828 24.2657 9.73828C27.4496 9.73828 30.3633 10.9049 32.6095 12.8374C34.8557 10.9049 37.7694 9.73828 40.9533 9.73828C48.0575 9.73828 53.8167 15.5466 53.8167 22.7115C53.8167 29.8765 48.0575 35.6848 40.9533 35.6848C37.7694 35.6848 34.8557 34.5182 32.6095 32.5857Z" fill="#ED0006"/>
<path fill-rule="evenodd" clip-rule="evenodd" d="M32.6094 32.5858C35.3752 30.2062 37.129 26.6654 37.129 22.7115C37.129 18.7576 35.3752 15.2169 32.6094 12.8373C34.8556 10.9049 37.7692 9.73828 40.9531 9.73828C48.0573 9.73828 53.8164 15.5466 53.8164 22.7115C53.8164 29.8765 48.0573 35.6848 40.9531 35.6848C37.7692 35.6848 34.8556 34.5182 32.6094 32.5858Z" fill="#F9A000"/>
<path fill-rule="evenodd" clip-rule="evenodd" d="M32.6095 32.5858C35.3753 30.2062 37.1291 26.6655 37.1291 22.7116C37.1291 18.7577 35.3753 15.2169 32.6095 12.8374C29.8436 15.2169 28.0898 18.7577 28.0898 22.7116C28.0898 26.6655 29.8436 30.2062 32.6095 32.5858Z" fill="#FD6020"/>
</svg>
