<svg width="30" height="30" viewBox="0 0 30 30" fill="none" xmlns="http://www.w3.org/2000/svg">
<path d="M18.1425 18.0145C18.1425 18.611 17.6589 19.0945 17.0626 19.0945C16.4661 19.0945 15.9824 18.611 15.9824 18.0145C15.9824 17.418 16.4661 16.9346 17.0626 16.9346C17.6589 16.9346 18.1425 17.418 18.1425 18.0145Z" fill="black"/>
<path d="M14.0634 11.7748C14.0634 12.3713 13.5798 12.8549 12.9833 12.8549C12.387 12.8549 11.9033 12.3713 11.9033 11.7748C11.9033 11.1785 12.387 10.6948 12.9833 10.6948C13.5798 10.6948 14.0634 11.1785 14.0634 11.7748Z" fill="black"/>
<path d="M25.4389 14.0786C24.9109 13.5506 24.7189 12.5907 25.007 11.8946C25.295 11.2226 24.959 10.4306 24.287 10.1426C23.615 9.85468 23.063 9.03854 23.063 8.29458C23.063 7.55063 22.463 6.95063 21.743 6.95063C20.999 6.95063 20.1831 6.39867 19.8949 5.72667C19.607 5.05467 18.8389 4.71867 18.143 5.00663C17.471 5.29457 16.4869 5.10255 15.9589 4.57471C15.4309 4.04671 14.5909 4.04671 14.0869 4.57471C13.5589 5.10271 12.599 5.29475 11.9029 5.00663C11.2309 4.71868 10.4389 5.05467 10.1509 5.72667C9.86298 6.39866 9.04685 6.95063 8.30289 6.95063C7.55894 6.95063 6.98285 7.55063 6.98285 8.29458C6.98285 9.03854 6.43089 9.8545 5.75889 10.1426C5.08689 10.4306 4.75089 11.1987 5.03885 11.8946C5.3268 12.5666 5.13478 13.5506 4.60694 14.0786C4.07894 14.6066 4.07894 15.4467 4.60694 15.9506C5.13494 16.4786 5.32698 17.4386 5.03885 18.1347C4.7509 18.8067 5.0869 19.5987 5.75889 19.8866C6.43089 20.1746 6.98285 20.9907 6.98285 21.7347C6.98285 22.4786 7.58285 23.0547 8.30289 23.0547C9.04685 23.0547 9.86281 23.6067 10.1509 24.2787C10.4389 24.9507 11.207 25.2867 11.9029 24.9987C12.5749 24.7108 13.5589 24.9028 14.0869 25.4306C14.6149 25.9586 15.455 25.9586 15.9589 25.4306C16.4869 24.9026 17.4469 24.7106 18.143 24.9987C18.815 25.2867 19.607 24.9507 19.8949 24.2787C20.1829 23.6067 20.999 23.0547 21.743 23.0547C22.4869 23.0547 23.063 22.4547 23.063 21.7347C23.063 21.0146 23.615 20.1748 24.287 19.8866C24.959 19.5987 25.295 18.8306 25.007 18.1347C24.7191 17.4627 24.9111 16.4786 25.4389 15.9506C25.943 15.4465 25.943 14.5827 25.4389 14.0786V14.0786ZM10.9429 11.7745C10.9429 10.6465 11.855 9.73445 12.983 9.73445C14.111 9.73445 15.0231 10.6465 15.0231 11.7745C15.0229 12.9025 14.1109 13.8146 12.9829 13.8146C11.8549 13.8146 10.943 12.9026 10.943 11.7745H10.9429ZM12.4069 19.1425C12.311 19.2626 12.1669 19.3346 12.0229 19.3346C11.927 19.3346 11.8309 19.3106 11.735 19.2386C11.519 19.0706 11.4949 18.7826 11.639 18.5666L17.855 10.4066C18.0231 10.1907 18.3111 10.1666 18.527 10.3107C18.743 10.4788 18.7671 10.7667 18.623 10.9827L12.4069 19.1425ZM17.0629 20.0546C15.9349 20.0546 15.0229 19.1425 15.0229 18.0145C15.0229 16.8865 15.9349 15.9744 17.0629 15.9744C18.1909 15.9744 19.103 16.8865 19.103 18.0145C19.1029 19.1425 18.191 20.0546 17.0629 20.0546Z" fill="black"/>
</svg>
