<svg width="65" height="47" viewBox="0 0 65 47" fill="none" xmlns="http://www.w3.org/2000/svg">
<rect x="0.5" y="0.5" width="63.5" height="45.47" rx="3.5" fill="white" stroke="#CDD5DF"/>
<path fill-rule="evenodd" clip-rule="evenodd" d="M27.7221 35.7216L28.1409 32.9157L27.2081 32.8928H22.7539L25.8494 12.1872C25.859 12.1245 25.8902 12.0663 25.9357 12.0249C25.9815 11.9835 26.0398 11.9608 26.1008 11.9608H33.6112C36.1048 11.9608 37.8254 12.5081 38.7237 13.5884C39.1449 14.0952 39.4131 14.6249 39.543 15.2077C39.6791 15.8193 39.6813 16.5499 39.5486 17.4412L39.5389 17.506V18.0771L39.9601 18.3289C40.3147 18.5274 40.5966 18.7545 40.8128 19.0146C41.173 19.448 41.406 19.9988 41.5045 20.6516C41.6063 21.3231 41.5727 22.1223 41.406 23.027C41.2138 24.0676 40.9032 24.974 40.4836 25.7155C40.0978 26.3988 39.6062 26.9657 39.0224 27.4049C38.4651 27.8222 37.803 28.139 37.0544 28.3418C36.3288 28.541 35.5017 28.6416 34.5945 28.6416H34.01C33.5922 28.6416 33.1862 28.8003 32.8675 29.0849C32.5479 29.3755 32.3367 29.7725 32.2718 30.2067L32.2277 30.4593L31.4878 35.405L31.4543 35.5865C31.4454 35.644 31.4301 35.6726 31.4077 35.692C31.3877 35.7097 31.359 35.7216 31.331 35.7216H27.7221Z" fill="#28356A"/>
<path fill-rule="evenodd" clip-rule="evenodd" d="M40.3626 17.5725C40.3404 17.7237 40.3146 17.8782 40.2859 18.037C39.2955 23.4016 35.9068 25.2549 31.5792 25.2549H29.3756C28.8463 25.2549 28.4002 25.6602 28.3179 26.211L26.8702 35.8985C26.8166 36.2603 27.0808 36.5861 27.4266 36.5861H31.3349C31.7976 36.5861 32.1908 36.2314 32.2637 35.75L32.302 35.5406L33.0379 30.6143L33.0852 30.3441C33.1572 29.861 33.5512 29.5061 34.0139 29.5061H34.5984C38.3849 29.5061 41.3492 27.8845 42.2156 23.1913C42.5773 21.2308 42.3901 19.5938 41.4324 18.4425C41.1426 18.0954 40.7831 17.8072 40.3626 17.5725Z" fill="#2F80ED"/>
<path fill-rule="evenodd" clip-rule="evenodd" d="M39.3251 17.1361C39.1737 17.0895 39.0176 17.0474 38.8575 17.0093C38.6965 16.9722 38.5316 16.9393 38.3618 16.9104C37.7677 16.8091 37.1166 16.7611 36.4194 16.7611H30.5327C30.3876 16.7611 30.2499 16.7957 30.1268 16.8581C29.8552 16.9958 29.6536 17.267 29.6047 17.5989L28.3523 25.9665L28.3164 26.2104C28.3987 25.6596 28.8448 25.2543 29.3741 25.2543H31.5776C35.9053 25.2543 39.2939 23.4001 40.2844 18.0364C40.314 17.8776 40.3389 17.7231 40.3611 17.5719C40.1105 17.4316 39.8392 17.3117 39.5469 17.2095C39.4747 17.1841 39.4002 17.1598 39.3251 17.1361Z" fill="#28356A"/>
<path fill-rule="evenodd" clip-rule="evenodd" d="M29.6041 17.5989C29.653 17.2669 29.8546 16.9958 30.1262 16.859C30.2502 16.7963 30.387 16.7618 30.5322 16.7618H36.4188C37.1161 16.7618 37.7672 16.8101 38.3613 16.9113C38.5311 16.9399 38.6959 16.9731 38.8569 17.0102C39.0171 17.0481 39.1732 17.0904 39.3246 17.1368C39.3997 17.1605 39.4741 17.1851 39.547 17.2094C39.8393 17.3116 40.1109 17.4325 40.3614 17.5719C40.6561 15.5894 40.3589 14.2396 39.3429 13.0174C38.2227 11.6716 36.201 11.0957 33.614 11.0957H26.1033C25.5749 11.0957 25.1241 11.501 25.0425 12.0527L21.9143 32.9712C21.8526 33.385 22.1551 33.7584 22.5508 33.7584H27.1875L29.6041 17.5989Z" fill="#28356A"/>
</svg>
