<svg width="24" height="24" viewBox="0 0 24 24" fill="none" xmlns="http://www.w3.org/2000/svg">
<g clip-path="url(#clip0_4941_314737)">
<path d="M4.12539 3.7382L5.41771 2.96429C6.00591 2.61168 6.70223 2.48711 7.3767 2.61382C8.05116 2.74054 8.65767 3.10989 9.083 3.65292L10.4407 5.3863C10.8065 5.85325 11.0184 6.42326 11.0465 7.01636C11.0746 7.60945 10.9177 8.19586 10.5976 8.6933L9.43414 10.502C9.41977 10.5244 9.4096 10.5493 9.40413 10.5754C9.32681 10.9428 9.78729 11.7577 10.8751 12.8911C12.1018 14.1683 12.9087 14.5927 13.1918 14.4254L15.0336 13.3112C15.5381 13.0065 16.1253 12.8686 16.7128 12.917C17.3003 12.9655 17.8586 13.1977 18.3097 13.5812L19.9776 14.9981C20.5013 15.4429 20.8474 16.0635 20.9517 16.7445C21.0561 17.4254 20.9114 18.1204 20.5448 18.7004L19.7343 19.9808C19.4526 20.4264 19.0677 20.7964 18.6126 21.0592C18.1574 21.322 17.6454 21.4697 17.1204 21.4899C14.0024 21.6089 10.7472 19.868 7.3452 16.3257C3.94176 12.781 2.32258 9.44254 2.55045 6.30726C2.58858 5.78236 2.75167 5.27488 3.02594 4.82769C3.30022 4.3805 3.67677 4.00695 4.12539 3.7382ZM4.79563 4.86591C4.52643 5.02712 4.29997 5.25134 4.13537 5.51963C3.97077 5.78793 3.87287 6.0924 3.84995 6.40734C3.65336 9.10908 5.11058 12.1146 8.28037 15.4155C11.4478 18.7143 14.3795 20.2816 17.0657 20.1786C17.3809 20.1665 17.6882 20.0778 17.9614 19.92C18.2346 19.7622 18.4656 19.54 18.6346 19.2725L19.4444 17.9932C19.642 17.6809 19.7199 17.3067 19.6638 16.94C19.6078 16.5732 19.4214 16.239 19.1395 15.9994L17.4714 14.5817C17.2285 14.3752 16.9279 14.2502 16.6117 14.2241C16.2954 14.198 15.9793 14.2722 15.7076 14.4362L13.8612 15.5533C12.8372 16.1619 11.5637 15.4925 9.93975 13.8004C8.56444 12.369 7.93087 11.2448 8.12962 10.2995C8.16807 10.1167 8.2392 9.94288 8.33964 9.7861L9.50314 7.97737C9.67556 7.70951 9.76014 7.39369 9.74501 7.07427C9.72988 6.75485 9.61579 6.44785 9.41876 6.19637L8.06127 4.46384C7.83223 4.17135 7.50559 3.97242 7.14234 3.90419C6.77909 3.83595 6.40407 3.90309 6.08732 4.09305L4.795 4.86696L4.79563 4.86591Z" fill="#F8FAFC"/>
</g>
<defs>
<clipPath id="clip0_4941_314737">
<rect width="24" height="24" fill="white"/>
</clipPath>
</defs>
</svg>
