<svg width="20" height="20" viewBox="0 0 20 20" fill="none" xmlns="http://www.w3.org/2000/svg">
<path d="M19 19.0005L13 13.0005M15 8.00049C15 8.91974 14.8189 9.82999 14.4672 10.6793C14.1154 11.5286 13.5998 12.3002 12.9497 12.9502C12.2997 13.6002 11.5281 14.1159 10.6788 14.4676C9.8295 14.8194 8.91925 15.0005 8 15.0005C7.08075 15.0005 6.17049 14.8194 5.32122 14.4676C4.47194 14.1159 3.70026 13.6002 3.05025 12.9502C2.40024 12.3002 1.88463 11.5286 1.53284 10.6793C1.18106 9.82999 1 8.91974 1 8.00049C1 6.14397 1.7375 4.36349 3.05025 3.05074C4.36301 1.73799 6.14348 1.00049 8 1.00049C9.85651 1.00049 11.637 1.73799 12.9497 3.05074C14.2625 4.36349 15 6.14397 15 8.00049Z" stroke="#121926" stroke-width="1.5" stroke-linecap="round" stroke-linejoin="round"/>
</svg>
