<svg width="48" height="48" viewBox="0 0 48 48" fill="none" xmlns="http://www.w3.org/2000/svg">
<rect width="48" height="48" rx="24" fill="white"/>
<path d="M20.6841 25.3424C20.8861 24.9384 21.0001 24.4824 21.0001 24.0004C21.0001 23.5184 20.8861 23.0624 20.6841 22.6584M20.6841 25.3424C20.3818 25.9467 19.8843 26.4314 19.2722 26.7177C18.6601 27.0041 17.9692 27.0754 17.3115 26.9201C16.6538 26.7648 16.0678 26.3919 15.6485 25.862C15.2291 25.3321 15.001 24.6761 15.001 24.0004C15.001 23.3246 15.2291 22.6686 15.6485 22.1387C16.0678 21.6088 16.6538 21.236 17.3115 21.0807C17.9692 20.9254 18.6601 20.9966 19.2722 21.283C19.8843 21.5693 20.3818 22.054 20.6841 22.6584M20.6841 25.3424L27.3161 28.6584M20.6841 22.6584L27.3161 19.3424M27.3161 28.6584C26.9602 29.3702 26.9016 30.1943 27.1533 30.9493C27.4049 31.7043 27.9462 32.3284 28.6581 32.6844C29.3699 33.0403 30.194 33.0988 30.949 32.8472C31.704 32.5955 32.3282 32.0542 32.6841 31.3424C33.04 30.6305 33.0986 29.8064 32.8469 29.0514C32.5952 28.2964 32.0539 27.6723 31.3421 27.3164C30.9896 27.1401 30.6059 27.035 30.2128 27.0071C29.8197 26.9792 29.425 27.0289 29.0511 27.1535C28.2961 27.4052 27.672 27.9465 27.3161 28.6584ZM27.3161 19.3424C27.4923 19.6948 27.7362 20.009 28.0339 20.2671C28.3316 20.5253 28.6772 20.7222 29.051 20.8468C29.4248 20.9714 29.8195 21.0211 30.2125 20.9931C30.6055 20.9652 30.9892 20.8601 31.3416 20.6839C31.694 20.5076 32.0082 20.2637 32.2664 19.966C32.5245 19.6684 32.7215 19.3227 32.846 18.9489C32.9706 18.5751 33.0203 18.1805 32.9924 17.7874C32.9644 17.3944 32.8593 17.0108 32.6831 16.6584C32.3272 15.9467 31.7031 15.4055 30.9482 15.1539C30.1932 14.9023 29.3693 14.9609 28.6576 15.3169C27.9459 15.6728 27.4047 16.2968 27.1531 17.0518C26.9015 17.8067 26.9602 18.6306 27.3161 19.3424Z" stroke="#1F2526" stroke-width="2" stroke-linecap="round" stroke-linejoin="round"/>
</svg>
