<svg width="16" height="15" viewBox="0 0 16 15" fill="none" xmlns="http://www.w3.org/2000/svg">
<path d="M3.86335 14.8889C3.69454 14.8889 3.52574 14.8326 3.37562 14.7201C3.07543 14.495 2.9629 14.1386 3.07543 13.7821L4.36991 9.80494C4.42618 9.63613 4.36991 9.42977 4.21981 9.33594L0.842994 6.8784C0.542802 6.65332 0.430272 6.29687 0.542802 5.94039C0.655343 5.58392 0.974251 5.35886 1.33073 5.35886H5.51423C5.70188 5.35886 5.8707 5.24632 5.92695 5.05867L7.22143 1.08153C7.33397 0.725054 7.65288 0.5 8.00936 0.5C8.36583 0.5 8.68472 0.725081 8.79728 1.08153L10.073 5.07743C10.1293 5.24624 10.2981 5.37762 10.4858 5.37762H14.6693C15.0444 5.37762 15.3446 5.60271 15.4572 5.95915C15.5697 6.3156 15.4572 6.67207 15.157 6.89716L11.7802 9.3547C11.6301 9.46724 11.5738 9.65489 11.6301 9.8237L12.9246 13.8008C13.0371 14.1573 12.9246 14.5138 12.6244 14.7388C12.3242 14.9639 11.949 14.9639 11.6488 14.7388L8.27199 12.2813C8.12189 12.1688 7.91551 12.1688 7.76543 12.2813L4.38861 14.7388C4.20122 14.8327 4.03241 14.8889 3.8636 14.8889L3.86335 14.8889Z" fill="#F79009"/>
</svg>
