<svg width="23" height="20" viewBox="0 0 23 20" fill="none" xmlns="http://www.w3.org/2000/svg">
<path d="M10.0001 9.16667V14.1667M13.7144 9.16667V14.1667M4.42871 5.83333H19.2858M18.3573 5.83333L17.5522 15.9517C17.5189 16.3722 17.3092 16.7657 16.9655 17.053C16.6217 17.3403 16.1694 17.5 15.6997 17.5H8.01485C7.54512 17.5 7.09284 17.3403 6.7491 17.053C6.40536 16.7657 6.1957 16.3722 6.16235 15.9517L5.35728 5.83333H18.3573ZM14.643 5.83333V3.33333C14.643 3.11232 14.5452 2.90036 14.371 2.74408C14.1969 2.5878 13.9607 2.5 13.7144 2.5H10.0001C9.75386 2.5 9.51768 2.5878 9.34354 2.74408C9.1694 2.90036 9.07157 3.11232 9.07157 3.33333V5.83333H14.643Z" stroke="#697586" stroke-width="2" stroke-linecap="round" stroke-linejoin="round"/>
</svg>
