<svg width="42" height="66" viewBox="0 0 42 66" fill="none" xmlns="http://www.w3.org/2000/svg">
<path d="M8.48127 65.0832C8.08636 64.6883 7.8889 64.2933 7.8889 63.701C7.29653 58.7645 6.90162 53.6307 6.30925 48.6943C5.91434 44.1528 5.32196 39.6112 4.92705 35.0697C4.72959 33.0952 4.53214 31.1207 4.33469 28.9486C3.93977 28.9486 3.54486 28.9486 3.3474 28.9486C1.76775 28.9486 0.583008 27.5664 0.583008 26.1842C0.583008 24.6045 1.76775 23.4198 3.3474 23.4198C4.53214 23.4198 4.53215 23.4198 5.12452 22.2351C5.51943 21.0503 5.91434 19.8656 6.30925 18.8783C6.50671 18.0885 6.70416 17.891 7.69144 17.891C11.0482 17.891 14.2075 17.891 17.5643 17.891C17.7617 17.891 17.9592 17.891 18.3541 17.891C18.3541 17.6935 18.3541 17.2987 18.3541 17.1012C18.3541 14.7318 18.3541 12.3622 18.3541 9.99273C18.3541 7.4258 19.5388 5.84614 21.9083 5.05632C25.66 3.67412 29.4117 2.48938 33.3608 1.10719C34.1506 0.712272 34.5455 0.909777 34.9405 1.89706C35.3354 2.88434 35.5328 3.87163 35.9277 4.85891C36.3227 5.84619 36.1252 6.24108 35.1379 6.43854C31.5837 7.62328 28.2269 8.80799 24.6727 9.99273C24.2778 10.1902 24.0803 10.3877 24.0803 10.7826C24.0803 13.1521 24.0803 15.3241 24.0803 17.6936C24.2778 17.6936 24.4753 17.6936 24.8702 17.6936C28.2269 17.6936 31.5837 17.6936 34.743 17.6936C35.5328 17.6936 35.7303 17.891 36.1252 18.6809C36.5201 20.0631 37.1125 21.4452 37.5074 22.8274C37.7048 23.2223 37.9023 23.4198 38.2972 23.4198C38.6921 23.4198 39.0871 23.4198 39.6794 23.4198C41.0616 23.8147 42.0489 24.9994 41.8514 26.3816C41.654 27.7638 40.4692 28.7512 39.087 28.9486C38.6921 28.9486 38.2972 28.9486 37.9023 28.9486C37.7049 30.1334 37.7048 31.318 37.5074 32.7002C36.915 37.6367 36.5201 42.7706 35.9277 47.707C35.3354 52.6434 34.9405 57.5798 34.3481 62.5163C34.3481 62.9112 34.1506 63.306 34.1506 63.701C34.1506 64.2933 33.9532 64.6883 33.5583 65.0832C24.8702 65.0832 16.577 65.0832 8.48127 65.0832ZM6.1118 28.9486C7.29654 40.4011 8.48127 51.6561 9.66601 63.1086C17.1694 63.1086 24.4753 63.1086 31.7812 63.1086C32.9659 51.6561 34.1506 40.4011 35.3354 28.9486C25.66 28.9486 15.7872 28.9486 6.1118 28.9486ZM35.1379 23.4198C34.743 22.235 34.3481 21.2478 34.1506 20.2605C33.9532 19.6681 33.7557 19.6682 33.1633 19.6682C24.8702 19.6682 16.577 19.6682 8.28382 19.6682C8.08636 19.6682 7.8889 19.6682 7.69144 19.6682C7.09907 21.2478 6.70417 22.8274 6.1118 24.2096C5.71689 25.1969 5.71688 25.1969 4.72959 25.1969C4.33468 25.1969 3.74232 25.1969 3.3474 25.1969C2.75503 25.1969 2.36012 25.5918 2.36012 26.1842C2.36012 26.7766 2.75503 27.1715 3.3474 27.1715C3.54486 27.1715 3.54485 27.1715 3.74231 27.1715C15.1948 27.1715 26.6473 27.1715 38.0998 27.1715C38.2972 27.1715 38.4947 27.1715 38.6921 27.1715C39.2845 27.1715 39.6794 26.7766 39.6794 26.1842C39.6794 25.5918 39.2845 25.3944 38.6921 25.1969C38.4947 25.1969 38.2972 25.1969 38.0998 25.1969C28.6218 25.1969 19.1439 25.1969 9.66601 25.1969C9.46855 25.1969 9.2711 25.1969 9.07365 25.1969C8.67873 24.9995 8.28382 24.802 8.28382 24.2096C8.28382 23.8147 8.67873 23.4198 9.07365 23.4198C9.2711 23.4198 9.46855 23.4198 9.66601 23.4198C17.9592 23.4198 26.2524 23.4198 34.5455 23.4198C34.5455 23.4198 34.9405 23.4198 35.1379 23.4198ZM32.7684 2.88434C32.571 2.88434 32.3735 3.08175 32.1761 3.08175C28.8193 4.26649 25.4625 5.45121 22.1058 6.63595C20.3287 7.22832 19.7363 8.01821 19.7363 9.79532C19.7363 12.1648 19.7363 14.5343 19.7363 17.1012C19.7363 17.2987 19.7363 17.4961 19.7363 17.6936C20.3287 17.6936 20.921 17.6936 21.5134 17.6936C21.5134 17.4961 21.5134 17.1012 21.5134 16.9037C21.5134 14.5342 21.5134 12.1648 21.5134 9.79532C21.5134 9.0055 21.7109 8.80802 22.5007 8.4131C25.8574 7.22836 29.4117 6.04365 32.7684 4.85891C32.9659 4.85891 33.1633 4.66138 33.3608 4.66138C33.1633 4.06901 32.9659 3.47671 32.7684 2.88434Z" fill="currentColour"/>
</svg>
