<svg width="65" height="47" viewBox="0 0 65 47" fill="none" xmlns="http://www.w3.org/2000/svg">
<rect x="0.519531" y="0.5" width="63.5" height="45.4714" rx="3.5" fill="#FCFCFD" stroke="#CDD5DF"/>
<path fill-rule="evenodd" clip-rule="evenodd" d="M20.413 30.7072H16.5055L13.5754 18.9617C13.4363 18.4215 13.141 17.9438 12.7067 17.7187C11.6226 17.153 10.4281 16.7027 9.125 16.4756V16.0234H15.4196C16.2883 16.0234 16.9399 16.7027 17.0485 17.4916L18.5688 25.964L22.4743 16.0234H26.2732L20.413 30.7072ZM28.4442 30.7072H24.7539L27.7926 16.0234H31.4829L28.4442 30.7072ZM36.2581 20.0901C36.3667 19.2992 37.0183 18.847 37.7784 18.847C38.9729 18.7335 40.2742 18.9606 41.3601 19.5243L42.0116 16.3629C40.9257 15.9107 39.7312 15.6836 38.6472 15.6836C35.0655 15.6836 32.4593 17.7175 32.4593 20.5403C32.4593 22.6878 34.3053 23.8153 35.6085 24.4946C37.0183 25.1719 37.5612 25.6241 37.4526 26.3014C37.4526 27.3174 36.3667 27.7696 35.2827 27.7696C33.9796 27.7696 32.6764 27.431 31.4838 26.8652L30.8323 30.0286C32.1354 30.5924 33.5452 30.8195 34.8483 30.8195C38.8643 30.9311 41.3601 28.8991 41.3601 25.8492C41.3601 22.0085 36.2581 21.7834 36.2581 20.0901ZM54.2736 30.7072L51.3435 16.0234H48.1962C47.5446 16.0234 46.893 16.4756 46.6759 17.153L41.25 30.7072H45.0489L45.8071 28.5617H50.4747L50.9091 30.7072H54.2736ZM48.7398 19.9766L49.8239 25.5106H46.7852L48.7398 19.9766Z" fill="#28356A"/>
</svg>
